<?xml version="1.0" encoding="UTF-8"?>
<!DOCTYPE svg PUBLIC "-//W3C//DTD SVG 1.1//EN" "http://www.w3.org/Graphics/SVG/1.1/DTD/svg11.dtd">
<!-- Creator: CorelDRAW 2019 (64-Bit) -->
<svg xmlns="http://www.w3.org/2000/svg" xml:space="preserve" version="1.1" style="shape-rendering:geometricPrecision; text-rendering:geometricPrecision; image-rendering:optimizeQuality; fill-rule:evenodd; clip-rule:evenodd" viewBox="0 0 29700 10000"
    xmlns:xlink="http://www.w3.org/1999/xlink"
    xmlns:xodm="http://www.corel.com/coreldraw/odm/2003">

    <g id="Слой_x0020_1">
        <metadata id="CorelCorpID_0Corel-Layer"/>
        <g id="_2895333246368">
            <path style="fill:#005944" d="M3772.67 2171.1c-0.34,-289.87 -61.68,-544.31 -177.15,-757.56l-881.7 563.15c20.85,64.6 31.61,136.22 31.7,214.34 0.4,343.45 -194.99,574.75 -629.07,575.26l-598.79 0.71 -201.68 455.12 202.35 456.72 568.61 -0.68c1051.62,-1.24 1686.8,-589.01 1685.73,-1507.06z"/>
            <path style="fill:#F9C100" d="M2083.43 668.07l-755.25 0.89 187.78 968.85 -0.01 -13.59 599.16 -0.71c375.73,-0.44 572.73,167.94 619.25,435.91l917.98 -527.19c-231.05,-549.36 -784.39,-865.09 -1568.91,-864.16z"/>
            <path style="fill:#F29300" d="M1515.95 1624.21l443.62 -0.53 399.28 -941.92c-88.06,-9.04 -179.54,-13.77 -274.49,-13.65l-1596.7 1.89 1028.29 959.18 0 -4.97z"/>
            <polygon style="fill:#B36000" points="1514.27,668.75 487.65,669.97 492.73,5041.42 1519.35,5040.2 "/>
            <polygon style="fill:#F29300" points="492.72,5041.43 507.99,5041.42 1517.25,2767 490.76,3358.74 "/>
            <path style="fill:#F9C100" d="M7773.27 2438.8l0.08 67.27 1014.35 -503.93 -1.56 -1342 -1039.32 1.23 -1819.03 2562.59 -18.37 0.02c0,-3.7 -254.33,401.78 -254.33,401.78l256.22 308.14 1620.33 -1190.7 182.08 -261.5 59.55 -42.9z"/>
            <polygon style="fill:#9ACA00" points="8788.18,1704.53 8786.96,660.17 7784.24,661.35 8120.63,2187.35 "/>
            <path style="fill:#7AC100" d="M7772.97 2438.8c-1.84,94.23 -11.24,581.91 -10.64,1095.25l1.74 1498.77 1027.17 -1.22 -3.86 -3326.52 -1014.41 733.72z"/>
            <polygon style="fill:#068F0E" points="8750.64,5031.65 8791.23,5031.6 8787.36,1705.08 8121.76,2186.52 "/>
            <path style="fill:#037058" d="M5912.56 3223.99l-3.15 0.01c-0.01,-3.17 1.45,-151.09 2.74,-358.09l-2.56 -2202.33 -1024.2 1.21 5.08 4371.46 1024.2 -1.21 -2.11 -1811.05z"/>
            <path style="fill:#089577" d="M5913.21 3783.96l-0.65 -559.97 -3.15 0.01c-0.01,-3.17 1.45,-151.09 2.74,-358.09l-2.56 -2202.33 -4.68 0 -1016.47 2624.26 1.43 1236.3 1023.34 -740.18z"/>
            <polygon style="fill:#365F53" points="7773.27,2438.8 5901.91,3792.1 5768.74,4702.21 5852.57,5035.08 5936.02,5034.99 "/>
            <polygon style="fill:#005944" points="4889.86,4524.12 4890.46,5036.24 5914.65,5035.02 5913.2,3783.95 "/>
            <path style="fill:#F9C100" d="M12157.44 568.7c-756.19,0.9 -1391.45,314.55 -1792.72,837.13 128.49,125.97 416.75,414.91 747,725.43 208.04,-363.93 586.03,-575.26 1046.87,-575.81 709.24,-0.84 1223.4,498.11 1224.32,1284.97 0.69,598.48 -300.67,1032.12 -761.05,1202.23 149.85,254.06 376.9,600.93 552.58,857.56 756.99,-350.4 1242.88,-1103.26 1241.77,-2061.02 -1.56,-1336.44 -950.36,-2272.04 -2258.77,-2270.49z"/>
            <path style="fill:#EF8800" d="M11142.6 2080.9c206.6,-322.38 554.51,-512.49 975.25,-524.55l1040.69 -780.41c-296.97,-134.63 -634.89,-207.67 -1001.1,-207.24 -703.17,0.84 -1301.8,272.07 -1704.96,730.27 344.79,397.24 514.07,582.39 690.12,781.93z"/>
            <path style="fill:#089577" d="M13374.57 4794.24l-644.12 -798.41c-167.12,81.83 -359.34,125.97 -568.86,126.22 -709.25,0.84 -1223.41,-498.1 -1224.32,-1278.71 -0.36,-314.21 81.37,-582.42 224.61,-791.67l-654.75 -811.48c-380.05,399.51 -603.91,954.63 -603.16,1604.37 1.56,1336.35 950.31,2272 2258.77,2270.45 456.34,-0.54 868.4,-115.3 1211.83,-320.77z"/>
            <path style="fill:#037058" d="M10937.26 2843.33c-0.19,-162.45 21.73,-312.44 62.62,-448.51l-1072.17 804.06c95.27,709.42 474.16,1276.05 1031.83,1604.05l514.42 -872.24c-330.38,-213.32 -536.13,-594.01 -536.7,-1087.36z"/>
            <path style="fill:#365F53" d="M12161.57 4122.07c-260.92,0.31 -495.29,-67.26 -687.61,-191.35l-514.44 872.23c342.01,201.14 751.08,312.61 1203.21,312.08 456.34,-0.54 868.39,-115.31 1211.84,-320.77l-644.13 -798.42c-167.08,81.84 -359.34,125.99 -568.87,126.23z"/>
            <path style="fill:#924600" d="M13461.18 944.06l286.59 3564.99c419.65,-403.27 669.24,-983.81 668.44,-1669.84 -0.97,-828.41 -366.17,-1502.5 -955.03,-1895.15z"/>
            <path style="fill:#F4A500" d="M12117.87 1556.36c13.54,-0.39 27.04,-0.93 40.72,-0.95 233.32,-0.27 445.32,53.87 625.09,154.24l510.55 -865.83c-44.33,-23.92 -89.35,-46.85 -135.71,-67.87l-1040.65 780.41z"/>
            <path style="fill:#141214" d="M17461.63 948.68c0,9.98 -4.04,18.44 -12.18,25.32 -8.12,6.85 -17.18,10.3 -27.19,10.3l-303.84 0 0 1091.58c0,10.01 -3.75,18.76 -11.27,26.27 -7.48,7.48 -16.25,11.24 -26.26,11.24l-245.69 0c-10,0 -18.75,-3.76 -26.26,-11.24 -7.49,-7.51 -11.25,-16.26 -11.25,-26.27l0 -1091.58 -305.72 0c-9.99,0 -18.76,-3.45 -26.24,-10.3 -7.51,-6.88 -11.27,-15.34 -11.27,-25.32l0 -193.18c0,-10.01 3.76,-18.46 11.27,-25.32 7.48,-6.88 16.25,-10.32 26.24,-10.32l930.29 0c10.01,0 19.07,3.44 27.19,10.32 8.14,6.86 12.18,15.31 12.18,25.32l0 193.18zm1495.27 1117.83c0,22.5 -12.5,35.64 -37.5,39.37 -32.52,5.01 -75.96,10.32 -130.36,15.94 -54.39,5.65 -132.22,8.46 -233.5,8.46 -60.01,0 -117.53,-5.02 -172.87,-15.02 -55.32,-9.99 -104.1,-29.37 -145.96,-58.13 -42.21,-28.76 -75.96,-69.71 -100.99,-122.85 -25.32,-53.16 -37.82,-122.23 -37.82,-207.25l0 -622.7c0,-85.02 12.5,-153.79 37.82,-206.29 25.03,-52.53 58.78,-93.16 100.99,-121.92 41.86,-28.76 90.96,-48.15 146.9,-58.15 55.95,-9.99 113.78,-15 173.8,-15 50.03,0 94.11,0.94 132.24,2.81 38.14,1.89 71.58,4.07 100.34,6.56 28.76,2.5 53.45,5.02 74.09,7.52 20.62,2.49 39.06,4.99 55.32,7.48 25,3.76 37.5,16.26 37.5,37.53l0 174.43c0,9.98 -3.75,18.75 -11.24,26.24 -7.51,7.51 -16.26,11.27 -26.26,11.27l-380.74 0c-43.76,0 -74.7,9.06 -92.83,27.19 -18.15,18.12 -27.21,51.58 -27.21,100.33l0 170.7 485.78 0c10,0 18.75,3.73 26.24,11.24 7.51,7.51 11.27,16.26 11.27,26.26l0 178.19c0,9.98 -3.76,18.75 -11.27,26.24 -7.49,7.51 -16.24,11.26 -26.24,11.26l-485.78 0 0 198.81c0,48.77 9.06,82.21 27.21,100.33 18.13,18.15 49.07,27.21 92.83,27.21l380.74 0c10,0 18.75,3.75 26.26,11.24 7.49,7.51 11.24,16.26 11.24,26.27l0 174.43zm1831.03 -1326.04c0,7.51 -3.13,16.26 -9.38,26.27l-446.38 633.94 448.24 673.31c5.02,6.25 7.52,13.13 7.52,20.65 0,12.5 -8.75,18.75 -26.27,18.75l-322.59 0c-11.24,0 -19.7,-2.5 -25.32,-7.51 -5.62,-5 -10.93,-11.24 -15.94,-18.76l-380.74 -618.91 0 607.67c0,10.01 -3.74,18.76 -11.25,26.27 -7.51,7.48 -16.26,11.24 -26.26,11.24l-245.69 0c-10.01,0 -18.75,-3.76 -26.26,-11.24 -7.52,-7.51 -11.25,-16.26 -11.25,-26.27l0 -1320.38c0,-10.01 3.73,-18.46 11.25,-25.32 7.51,-6.88 16.25,-10.32 26.26,-10.32l245.69 0c10,0 18.75,3.44 26.26,10.32 7.51,6.86 11.25,15.31 11.25,25.32l0 596.4 412.62 -609.54c8.75,-15.02 22.51,-22.5 41.26,-22.5l286.96 0c20.01,0 30.02,6.88 30.02,20.61zm1435.28 1314.77c0,13.76 -3.44,23.45 -10.33,29.08 -6.85,5.62 -17.18,10.32 -30.94,14.07 -20.01,6.25 -55,13.13 -105.03,20.62 -50.01,7.51 -108.16,11.27 -174.43,11.27 -71.26,0 -140.34,-10.01 -207.24,-30.02 -66.89,-20.02 -125.96,-53.45 -177.23,-100.34 -51.27,-46.88 -92.53,-108.47 -123.79,-184.75 -31.26,-76.27 -46.88,-170.04 -46.88,-281.32l0 -236.32c0,-111.28 15.62,-205.07 46.88,-281.35 31.26,-76.27 72.52,-137.52 123.79,-183.8 51.27,-46.26 110.34,-79.4 177.23,-99.39 66.9,-20.02 135.98,-30.02 207.24,-30.02 66.27,0 124.42,3.75 174.43,11.27 50.03,7.48 85.02,14.68 105.03,20.93 13.76,3.75 24.09,8.12 30.94,13.13 6.89,4.99 10.33,14.37 10.33,28.45l0 183.17c0,25.01 -11.88,37.51 -35.65,37.51l-5.62 0c-36.24,-2.5 -78.45,-5.62 -126.6,-9.38 -48.14,-3.75 -98.46,-5.62 -150.97,-5.62 -32.52,0 -62.83,4.68 -90.96,14.08 -28.15,9.37 -52.84,26.24 -74.09,50.64 -21.25,24.06 -37.82,56.57 -49.7,97.2 -11.89,40.64 -17.83,91.91 -17.83,154.42l0 235.7c0,62.51 5.94,113.78 17.83,154.42 11.88,40.63 28.45,73.15 49.7,97.21 21.25,24.4 45.94,41.26 74.09,50.64 28.13,9.37 58.44,14.07 90.96,14.07 52.51,0 102.83,-1.88 150.97,-5.62 48.15,-3.75 90.36,-6.88 126.6,-9.37l5.62 0c23.77,0 35.65,12.5 35.65,37.5l0 181.92zm1635.94 -1106.56c0,9.98 -4.04,18.44 -12.18,25.32 -8.12,6.85 -17.18,10.3 -27.19,10.3l-303.83 0 0 1091.58c0,10.01 -3.76,18.76 -11.27,26.27 -7.49,7.48 -16.26,11.24 -26.27,11.24l-245.68 0c-10.01,0 -18.76,-3.76 -26.27,-11.24 -7.49,-7.51 -11.24,-16.26 -11.24,-26.27l0 -1091.58 -305.73 0c-9.98,0 -18.75,-3.45 -26.24,-10.3 -7.51,-6.88 -11.27,-15.34 -11.27,-25.32l0 -193.18c0,-10.01 3.76,-18.46 11.27,-25.32 7.49,-6.88 16.26,-10.32 26.24,-10.32l930.29 0c10.01,0 19.07,3.44 27.19,10.32 8.14,6.86 12.18,15.31 12.18,25.32l0 193.18zm683.18 -193.18c0,-10.01 3.73,-18.46 11.24,-25.32 7.51,-6.88 16.26,-10.32 26.27,-10.32l221.31 0c10.01,0 18.75,3.44 26.26,10.32 7.49,6.86 11.25,15.31 11.25,25.32l0 793.34c0,11.27 3.12,16.89 9.37,16.89 3.76,0 8.75,-5.01 15,-15l444.51 -772.73c11.25,-20.01 22.51,-34.71 33.75,-44.09 11.27,-9.38 26.27,-14.05 45.02,-14.05l189.43 0c20.01,0 36.9,6.88 50.64,20.61 13.76,13.77 20.64,30.66 20.64,50.64l0 1284.77c0,10.01 -3.75,18.76 -11.26,26.27 -7.49,7.48 -16.24,11.24 -26.24,11.24l-221.32 0c-10,0 -18.77,-3.76 -26.26,-11.24 -7.51,-7.51 -11.27,-16.26 -11.27,-26.27l0 -759.59c0,-10.01 -3.12,-15.02 -9.38,-15.02 -4.99,0 -10.61,5.01 -16.86,15.02l-427.63 738.95c-15.02,25 -30.02,40.95 -45.01,47.83 -15,6.88 -32.52,10.32 -52.53,10.32l-183.81 0c-19.99,0 -37.19,-6.88 -51.56,-20.62 -14.39,-13.76 -21.56,-30.65 -21.56,-50.66l0 -1286.61zm2356.14 241.93c-2.49,-10.01 -4.99,-17.18 -7.51,-21.57 -2.49,-4.38 -8.11,-6.56 -16.86,-6.56 -13.76,0 -22.51,9.38 -26.26,28.13l-234.45 1082.21c-2.49,9.98 -6.88,18.12 -13.13,24.37 -6.25,6.25 -14.37,9.38 -24.38,9.38l-262.57 0c-21.28,0 -31.89,-10.01 -31.89,-30.02 0,-1.24 0.32,-2.5 0.92,-3.73 0.63,-1.26 0.95,-3.13 0.95,-5.65l279.46 -1162.84c11.24,-45 27.5,-81.27 48.77,-108.77 21.25,-27.52 45.94,-48.46 74.07,-62.82 28.13,-14.4 58.47,-24.09 90.96,-29.08 32.52,-5.02 65.03,-7.51 97.55,-7.51 32.49,0 64.69,2.49 96.58,7.51 31.89,4.99 61.91,14.68 90.03,29.08 28.14,14.36 52.82,35.3 74.07,62.82 21.28,27.5 37.53,63.77 48.78,108.77l279.46 1162.84c0,2.52 0.32,4.39 0.92,5.65 0.63,1.23 0.95,2.49 0.95,3.73 0,20.01 -10.61,30.02 -31.89,30.02l-262.58 0c-10,0 -18.12,-3.13 -24.37,-9.38 -6.25,-6.25 -10.64,-14.39 -13.13,-24.37l-234.45 -1082.21zm1238.35 -240.07c0,-10 3.73,-18.75 11.24,-26.26 7.51,-7.49 16.57,-11.24 26.58,-11.24l245.06 0c10,0 19.06,3.75 26.58,11.24 7.51,7.51 11.24,16.26 11.24,26.26l0 500.78c21.27,-1.26 42.52,-2.18 63.45,-2.81 21.28,-0.63 42.53,-0.95 63.78,-0.95 80.97,0 157.54,5.94 229.14,17.83 71.57,11.88 134.11,33.76 186.93,65.64 53.13,31.89 95.34,75.65 126.28,131.28 31.25,55.65 46.88,126.6 46.88,212.88l0 13.13c0,86.28 -15.63,157.54 -46.88,213.82 -31.26,56.27 -73.46,100.97 -126.6,134.09 -53.13,33.15 -115.67,55.97 -187.56,68.47 -71.89,12.51 -148.48,18.76 -229.74,18.76 -31.26,0 -63.14,-0.63 -95.66,-1.89 -32.52,-1.24 -64.09,-2.81 -94.71,-4.68 -30.65,-1.89 -59.1,-4.07 -85.34,-6.57 -26.26,-2.49 -48.77,-5.62 -67.53,-9.37 -37.5,-6.25 -64.09,-17.52 -79.71,-33.78 -15.63,-16.23 -23.43,-45.62 -23.43,-88.14l0 -1228.49zm430.75 1110.34c59.7,0 109.08,-3.12 147.53,-9.38 38.77,-6.27 68.76,-16.57 90.65,-30.96 21.9,-14.37 36.58,-32.49 44.7,-54.4 8.14,-21.87 12.19,-47.8 12.19,-77.82l0 -13.13c0,-30 -4.05,-55.63 -12.19,-76.91 -8.12,-21.25 -22.8,-38.42 -44.7,-51.56 -21.89,-13.13 -51.88,-22.51 -90.65,-28.13 -38.45,-5.64 -87.83,-8.45 -147.53,-8.45 -19.7,0 -35.33,0 -46.6,0 -11.24,0 -20.3,0.31 -27.18,0.94 -6.57,0.63 -12.5,0.94 -17.52,0.94 -4.99,0 -11.24,0 -18.75,0l0 346.97c7.51,0 13.76,0 18.75,0 5.02,0 10.95,0.32 17.52,0.95 6.88,0.63 15.94,0.94 27.18,0.94 11.27,0 26.9,0 46.6,0zm-10807.72 3273.72l-545.79 0c-81.27,0 -147.54,-9.7 -198.81,-29.08 -51.27,-19.38 -91.27,-45.94 -120.03,-79.71 -28.76,-33.76 -48.46,-73.76 -59.07,-120.04 -10.64,-46.25 -15.94,-95.65 -15.94,-148.16l0 -979.04c0,-10.01 3.73,-18.75 11.24,-26.26 7.51,-7.49 16.26,-11.25 26.26,-11.25l245.69 0c10.01,0 18.75,3.76 26.27,11.25 7.5,7.51 11.24,16.25 11.24,26.26l0 980.59c0,14.08 0.31,26.9 0.94,38.77 0.63,11.89 3.76,22.19 9.38,30.94 5.62,8.77 13.76,15.34 24.37,19.7 10.64,4.38 26.58,6.57 47.83,6.57l298.22 0c20.01,0 35.64,-2.19 46.88,-6.57 11.27,-4.36 19.7,-10.93 25.32,-19.7 5.65,-8.75 8.77,-19.05 9.38,-30.94 0.63,-11.87 0.94,-24.69 0.94,-38.77l0 -980.59c0,-10.01 3.76,-18.75 11.27,-26.26 7.49,-7.49 16.23,-11.25 26.24,-11.25l245.71 0c10.01,0 18.76,3.76 26.24,11.25 7.51,7.51 11.27,16.25 11.27,26.26l0 980.59c0,17.84 -0.63,34.41 -1.89,50.04 -1.24,15.62 -3.13,30.94 -5.62,45.94l125.68 0c9.98,0 18.75,3.75 26.23,11.26 7.52,7.49 11.27,16.26 11.27,26.24l0 433.27c0,9.99 -3.75,18.76 -11.27,26.24 -7.48,7.52 -16.25,11.27 -26.23,11.27l-245.72 0c-10,0 -18.75,-3.75 -26.26,-11.27 -7.49,-7.48 -11.24,-16.25 -11.24,-26.24l0 -191.31zm1808.49 -46.89c0,22.51 -12.51,35.64 -37.51,39.38 -32.52,5.01 -75.96,10.32 -130.36,15.94 -54.39,5.64 -132.22,8.46 -233.5,8.46 -60.01,0 -117.54,-5.02 -172.88,-15.03 -55.31,-9.98 -104.08,-29.36 -145.95,-58.12 -42.21,-28.76 -75.96,-69.71 -100.99,-122.85 -25.32,-53.15 -37.82,-122.23 -37.82,-207.25l0 -622.7c0,-85.03 12.5,-153.79 37.82,-206.29 25.03,-52.53 58.78,-93.16 100.99,-121.92 41.87,-28.77 90.96,-48.15 146.9,-58.16 55.95,-9.98 113.78,-14.99 173.8,-14.99 50.03,0 94.11,0.94 132.24,2.81 38.14,1.89 71.58,4.07 100.34,6.56 28.76,2.5 53.45,5.02 74.09,7.51 20.62,2.5 39.06,5 55.32,7.49 25,3.76 37.51,16.26 37.51,37.53l0 174.43c0,9.98 -3.76,18.75 -11.25,26.24 -7.51,7.51 -16.25,11.27 -26.26,11.27l-380.74 0c-43.76,0 -74.7,9.06 -92.83,27.18 -18.15,18.13 -27.21,51.59 -27.21,100.34l0 170.69 485.78 0c10.01,0 18.75,3.74 26.24,11.24 7.51,7.52 11.26,16.26 11.26,26.27l0 178.18c0,9.99 -3.75,18.76 -11.26,26.25 -7.49,7.51 -16.23,11.26 -26.24,11.26l-485.78 0 0 198.81c0,48.77 9.06,82.21 27.21,100.33 18.13,18.15 49.07,27.21 92.83,27.21l380.74 0c10.01,0 18.75,3.76 26.26,11.24 7.49,7.51 11.25,16.26 11.25,26.26l0 174.43zm1844.15 9.38c0,10.01 -3.76,18.75 -11.27,26.26 -7.49,7.49 -16.23,11.25 -26.24,11.25l-245.71 0c-10.01,0 -18.75,-3.76 -26.24,-11.25 -7.51,-7.51 -11.27,-16.25 -11.27,-26.26l0 -542.04 -463.26 0 0 542.04c0,10.01 -3.74,18.75 -11.25,26.26 -7.51,7.49 -16.26,11.25 -26.26,11.25l-245.69 0c-10,0 -18.75,-3.76 -26.26,-11.25 -7.51,-7.51 -11.25,-16.25 -11.25,-26.26l0 -1320.39c0,-10 3.74,-18.46 11.25,-25.31 7.51,-6.88 16.26,-10.33 26.26,-10.33l245.69 0c10,0 18.75,3.45 26.26,10.33 7.51,6.85 11.25,15.31 11.25,25.31l0 498.89 463.26 0 0 -498.89c0,-10 3.76,-18.46 11.27,-25.31 7.49,-6.88 16.23,-10.33 26.24,-10.33l245.71 0c10.01,0 18.75,3.45 26.24,10.33 7.51,6.85 11.27,15.31 11.27,25.31l0 1320.39zm1690.32 -1127.2c0,9.98 -4.05,18.43 -12.19,25.32 -8.12,6.85 -17.18,10.29 -27.19,10.29l-303.83 0 0 1091.59c0,10.01 -3.76,18.75 -11.27,26.26 -7.49,7.49 -16.26,11.25 -26.26,11.25l-245.69 0c-10.01,0 -18.75,-3.76 -26.27,-11.25 -7.48,-7.51 -11.24,-16.25 -11.24,-26.26l0 -1091.59 -305.73 0c-9.98,0 -18.75,-3.44 -26.24,-10.29 -7.51,-6.89 -11.26,-15.34 -11.26,-25.32l0 -193.19c0,-10 3.75,-18.46 11.26,-25.31 7.49,-6.88 16.26,-10.33 26.24,-10.33l930.29 0c10.01,0 19.07,3.45 27.19,10.33 8.14,6.85 12.19,15.31 12.19,25.31l0 193.19zm1712.85 223.18c0,87.53 -15.94,160.37 -47.83,218.5 -32.2,58.15 -74.41,104.72 -126.91,139.73 -52.85,35.01 -112.55,59.7 -179.76,74.09 -67.19,14.37 -135.66,21.56 -206,21.56 -22.49,0 -47.51,-0.62 -75.01,-1.86 -27.82,-1.26 -53.46,-2.52 -77.2,-3.76l0 455.76c0,10.01 -3.75,18.75 -11.27,26.26 -7.51,7.49 -16.26,11.25 -26.26,11.25l-241.93 0c-10.01,0 -18.75,-3.44 -26.27,-10.32 -7.51,-6.89 -11.24,-15.32 -11.24,-25.32l0 -1260.37c0,-32.52 6.86,-54.4 20.62,-65.64 13.76,-11.27 35.01,-19.38 63.77,-24.4 47.83,-7.49 106.27,-13.42 175.98,-17.81 69.4,-4.38 137.87,-6.56 205.68,-6.56 71.29,0 141,6.88 208.52,20.64 67.51,13.74 127.84,38.14 180.37,73.15 52.5,35.01 95.03,81.58 126.91,139.71 31.89,58.15 47.83,130.98 47.83,218.52l0 16.87zm-320.72 -16.87c0,-67.53 -20.33,-115.36 -60.97,-143.48 -40.63,-28.14 -100.33,-42.21 -179.1,-42.21 -6.25,0 -16.89,0.31 -31.89,0.94 -15.02,0.63 -30.33,1.24 -45.96,1.87 -15.63,0.63 -30.63,1.26 -45.02,1.89 -14.37,0.6 -24.06,0.92 -29.05,0.92l0 382.63c4.99,0 14.68,0.29 29.05,0.92 14.39,0.63 30.02,1.26 46.91,1.89 16.86,0.61 32.49,0.92 46.89,0.92 14.36,0 24.05,0 29.07,0 83.76,0 144.72,-15.63 182.86,-46.88 38.14,-31.26 57.21,-78.77 57.21,-142.54l0 -16.87z"/>
            <path style="fill:#2B2A29" d="M4525.13 8825.97c0,-5.75 1.15,-10.34 3.44,-13.8l270.78 -503.58c-71.87,-27.6 -128.78,-70.14 -171.03,-127.63 -42.26,-57.49 -63.52,-132.23 -63.52,-224.2l0 -15.52c0,-73.59 13.51,-135.39 40.52,-185.4 27.02,-50.01 63.23,-89.97 108.65,-119.86 45.42,-29.9 98.02,-51.45 157.8,-64.68 59.8,-13.22 123.03,-19.83 189.71,-19.83 63.25,0 124.18,2.02 182.81,6.04 58.64,4.03 110.38,9.49 155.22,16.39 17.26,2.29 30.76,7.17 40.54,14.65 9.76,7.47 14.66,19.83 14.66,37.09l0 1186.53c0,9.21 -3.46,17.26 -10.36,24.16 -6.9,6.9 -14.95,10.34 -24.14,10.34l-172.46 0c-9.21,0 -16.96,-3.44 -23.28,-10.34 -6.34,-6.9 -9.49,-14.95 -9.49,-24.16l0 -467.37c-19.55,1.15 -43.98,2.58 -73.87,4.31 -29.89,1.73 -56.05,2.59 -79.05,2.59l-23.86 0 -247.48 460.47c-4.6,9.21 -9.19,17.26 -13.8,24.16 -4.6,6.9 -11.5,10.34 -20.7,10.34l-210.41 0c-13.78,0 -20.68,-6.9 -20.68,-20.7zm279.39 -869.21c0,75.88 20.7,128.2 61.79,156.95 41.4,28.74 106.64,43.11 195.75,43.11 6.9,0 17.54,-0.29 31.9,-0.86 14.38,-0.58 29.04,-1.16 44.56,-1.73 15.52,-0.58 30.46,-1.15 44.55,-1.73 14.38,-0.56 25.01,-0.85 31.91,-0.85l0 -388.06c-8.04,-1.14 -18.69,-2 -31.91,-2.58 -12.92,-0.57 -27.01,-1.15 -41.96,-1.71 -14.95,-0.59 -29.33,-1.17 -43.69,-1.73 -14.38,-0.59 -26.16,-0.88 -35.36,-0.88 -85.65,0 -150.33,14.38 -193.15,43.13 -42.83,28.75 -64.39,75.88 -64.39,141.42l0 15.52zm3153.42 8.62c0,75.89 -13.51,139.7 -40.52,191.44 -27.31,51.73 -63.54,93.41 -108.94,125.03 -45.71,31.62 -98.31,54.05 -158.38,67.26 -59.79,13.22 -123.32,19.83 -190.3,19.83 -22.99,0 -49.42,-0.86 -79.32,-2.59 -30.18,-1.71 -54.9,-3.15 -74.45,-4.31l0 450.13c0,9.21 -3.15,17.26 -9.49,24.16 -6.32,6.9 -14.07,10.34 -23.28,10.34l-172.46 0c-9.19,0 -17.25,-3.44 -24.14,-10.34 -6.9,-6.9 -10.35,-14.95 -10.35,-24.16l0 -1186.53c0,-17.26 4.89,-29.62 14.65,-37.09 9.78,-7.48 23.29,-12.36 40.54,-14.65 45.13,-6.9 96.87,-12.36 155.51,-16.39 58.91,-4.02 119.86,-6.04 183.38,-6.04 66.68,0 129.92,6.32 190,18.97 59.78,12.65 112.67,34.5 158.09,65.54 45.4,31.04 81.92,72.14 108.94,123.32 27.01,51.15 40.52,114.67 40.52,190.56l0 15.52zm-239.72 -15.52c0,-72.43 -21.56,-123.88 -64.68,-154.35 -43.11,-30.48 -107.79,-45.7 -194.01,-45.7 -9.21,0 -20.99,0.28 -35.35,0.86 -14.39,0.56 -29.04,1.14 -43.99,1.73 -14.94,0.56 -29.03,1.14 -42.25,1.71 -13.22,0.58 -23.87,1.44 -31.91,2.58l0 410.47c6.9,0 17.53,0.29 31.91,0.87 14.36,0.57 29.31,1.15 44.84,1.73 15.53,0.56 30.47,1.15 44.84,1.71 14.38,0.58 25.01,0.87 31.91,0.87 93.12,0 159.53,-17.25 199.2,-51.73 39.66,-34.5 59.49,-86.24 59.49,-155.23l0 -15.52zm2727.44 372.53c0,95.43 -12.36,177.06 -37.08,244.89 -24.72,67.83 -58.64,123.3 -102.33,166.43 -43.69,43.11 -95.43,75.02 -154.92,95.72 -59.8,20.68 -125.05,31.04 -196.32,31.04 -71.29,0 -136.54,-10.36 -196.32,-31.04 -59.51,-20.7 -111.25,-52.61 -154.94,-95.72 -43.69,-43.13 -77.61,-98.6 -102.33,-166.43 -24.72,-67.83 -37.08,-149.46 -37.08,-244.89l0 -232.84c0,-94.28 12.36,-175.62 37.08,-244.04 24.72,-68.39 58.64,-124.17 102.33,-167.28 43.69,-43.11 95.43,-75.02 154.94,-95.72 59.78,-20.7 125.03,-31.04 196.32,-31.04 71.27,0 136.52,10.34 196.32,31.04 59.49,20.7 111.23,52.61 154.92,95.72 43.69,43.11 77.61,98.89 102.33,167.28 24.72,68.42 37.08,149.76 37.08,244.04l0 232.84zm-239.73 -232.84c0,-114.96 -20.41,-198.61 -61.5,-250.93 -40.82,-52.31 -104.06,-78.47 -189.42,-78.47 -85.38,0 -148.61,26.16 -189.44,78.47 -41.09,52.32 -61.5,135.97 -61.5,250.93l0 232.84c0,114.96 20.41,198.61 61.5,250.93 40.83,52.31 104.06,78.47 189.44,78.47 85.36,0 148.6,-26.16 189.42,-78.47 41.09,-52.32 61.5,-135.97 61.5,-250.93l0 -232.84zm2580.86 703.65c0,12.65 -3.44,21.56 -10.34,26.74 -6.9,5.17 -16.11,9.49 -27.6,12.93 -6.9,2.29 -18.68,4.9 -35.36,7.75 -16.67,2.88 -37.08,5.76 -61.22,8.63 -24.16,2.88 -51.17,5.47 -81.06,7.76 -29.9,2.31 -61.52,3.46 -94.85,3.46 -51.74,0 -106.35,-7.48 -163.84,-22.43 -57.5,-14.95 -109.82,-42.25 -157.24,-81.92 -47.42,-39.65 -86.8,-93.41 -118.13,-161.24 -31.33,-67.85 -47.15,-155.22 -47.15,-262.15l0 -253.52c0,-108.08 15.82,-196.32 47.15,-264.73 31.33,-68.42 70.71,-122.16 118.13,-161.26 47.42,-39.09 99.74,-65.81 157.24,-80.19 57.49,-14.37 112.1,-21.56 163.84,-21.56 33.33,0 64.95,1.15 94.85,3.44 29.89,2.31 56.9,4.9 81.06,7.77 24.14,2.88 44.55,6.03 61.22,9.49 16.68,3.44 28.46,5.75 35.36,6.9 11.49,3.44 20.7,7.75 27.6,12.92 6.9,5.18 10.34,14.09 10.34,26.75l0 115.54c0,10.34 -2.59,18.97 -7.76,25.87 -5.19,6.9 -14.09,10.34 -26.74,10.34l-3.44 0c-14.95,-1.14 -33.06,-2.58 -54.33,-4.29 -21.28,-1.73 -43.98,-3.17 -68.12,-4.32 -24.16,-1.15 -48.88,-2.31 -74.16,-3.46 -25.29,-1.14 -49.45,-1.73 -72.44,-1.73 -36.79,0 -70.42,5.47 -100.89,16.39 -30.46,10.92 -56.62,28.74 -78.46,53.47 -21.85,24.72 -39.11,57.78 -51.74,99.17 -12.65,41.38 -18.97,92.56 -18.97,153.49l0 253.52c0,59.78 6.32,110.37 18.97,151.77 12.63,41.38 29.89,74.73 51.74,100.02 21.84,25.3 48,43.4 78.46,54.32 30.47,10.93 64.1,16.39 100.89,16.39 22.99,0 47.15,-0.57 72.44,-1.71 25.28,-1.15 50,-2.32 74.16,-3.46 24.14,-1.15 46.84,-2.59 68.12,-4.32 21.27,-1.71 39.38,-3.15 54.33,-4.29l3.44 0c12.65,0 21.55,3.44 26.74,10.34 5.17,6.9 7.76,15.52 7.76,25.87l0 115.54zm2016.89 -1012.35c-2.29,-10.36 -5.17,-17.53 -8.63,-21.55 -3.44,-4.03 -9.76,-6.05 -18.97,-6.05 -9.19,0 -15.51,2.02 -18.97,6.05 -3.44,4.02 -6.31,11.19 -8.61,21.55l-250.08 1036.51c-2.29,8.04 -6.31,14.94 -12.07,20.68 -5.75,5.75 -12.65,8.63 -20.7,8.63l-182.81 0c-9.19,0 -16.67,-2.59 -22.41,-7.76 -5.75,-5.18 -8.63,-12.36 -8.63,-21.55 0,-1.17 0.29,-2.31 0.86,-3.46 0.58,-1.15 0.87,-2.88 0.87,-5.17l282.83 -1081.35c10.36,-40.23 25.31,-71.85 44.84,-94.84 19.55,-23.01 40.54,-40.55 62.95,-52.62 22.43,-12.07 45.42,-19.82 69,-23.28 23.56,-3.44 44.54,-5.17 62.93,-5.17 18.41,0 39.4,1.73 62.95,5.17 23.58,3.46 46.57,11.21 69,23.28 22.41,12.07 43.4,29.61 62.93,52.62 19.56,22.99 34.5,54.61 44.86,94.84l282.83 1081.35c0,2.29 0.29,4.02 0.86,5.17 0.58,1.15 0.87,2.29 0.87,3.46 0,9.19 -2.88,16.37 -8.63,21.55 -5.75,5.17 -13.22,7.76 -22.41,7.76l-182.81 0c-8.05,0 -14.95,-2.88 -20.7,-8.63 -5.75,-5.74 -9.78,-12.64 -12.07,-20.68l-250.08 -1036.51zm2963.73 1036.51c0,9.19 -2.88,16.37 -8.63,21.55 -5.76,5.17 -13.22,7.76 -22.41,7.76l-182.82 0c-8.04,0 -14.94,-2.88 -20.7,-8.63 -5.75,-5.74 -9.77,-12.64 -12.07,-20.68l-79.33 -327.69 -396.67 0 -79.33 327.69c-2.3,8.04 -6.32,14.94 -12.07,20.68 -5.75,5.75 -12.65,8.63 -20.7,8.63l-182.81 0c-9.2,0 -16.68,-2.59 -22.41,-7.76 -5.76,-5.18 -8.63,-12.36 -8.63,-21.55 0,-1.17 0.29,-2.31 0.85,-3.46 0.59,-1.15 0.88,-2.88 0.88,-5.17l282.83 -1081.35c10.35,-40.23 25.3,-71.85 44.84,-94.84 19.55,-23.01 40.54,-40.55 62.95,-52.62 22.43,-12.07 45.42,-19.82 68.99,-23.28 23.56,-3.44 44.55,-5.17 62.94,-5.17 18.4,0 39.39,1.73 62.95,5.17 23.57,3.46 46.57,11.21 69,23.28 22.41,12.07 43.4,29.61 62.93,52.62 19.55,22.99 34.5,54.61 44.86,94.84l282.83 1081.35c0,2.29 0.29,4.02 0.85,5.17 0.58,1.15 0.88,2.29 0.88,3.46zm-496.7 -1036.51c-2.3,-10.36 -5.17,-17.53 -8.63,-21.55 -3.44,-4.03 -9.76,-6.05 -18.97,-6.05 -9.2,0 -15.51,2.02 -18.97,6.05 -3.44,4.02 -6.32,11.19 -8.61,21.55l-124.18 512.21 303.53 0 -124.17 -512.21zm2915.42 707.09c0,69 -12.36,127.05 -37.08,174.19 -24.7,47.15 -59.49,85.38 -104.91,114.69 -45.41,29.32 -100.02,50.59 -164.41,63.8 -64.1,13.24 -136.54,19.85 -217.02,19.85 -69.85,0 -130.49,-1.73 -181.37,-5.17 -51.16,-3.46 -89.97,-8.05 -116.41,-13.8 -28.47,-5.75 -49.44,-14.66 -62.66,-26.74 -13.23,-12.07 -19.84,-34.21 -19.84,-66.4l0 -1086.51c0,-31.04 6.04,-53.18 18.11,-66.4 12.07,-13.23 31.9,-22.13 59.21,-26.74 23.01,-3.44 59.8,-7.17 110.37,-11.2 50.32,-4.02 109.52,-6.04 177.35,-6.04 77.9,0 149.48,6.04 214.15,18.11 64.97,12.07 120.73,31.9 167.86,59.5 47.15,27.6 83.36,63.51 109.23,107.79 25.87,44.27 38.81,99.16 38.81,164.7l0 34.49c0,57.5 -13.23,109.52 -39.39,156.08 -26.14,46.56 -65.52,81.35 -118.13,104.34 52.61,23 93.42,56.06 122.44,99.17 29.04,43.12 43.69,97.45 43.69,162.98l0 29.31zm-239.72 -572.57c0,-59.79 -22.13,-102.33 -66.39,-127.62 -44.27,-25.3 -121.59,-37.94 -231.97,-37.94 -20.69,0 -42.25,0.28 -64.68,0.86 -22.41,0.56 -42.81,1.44 -61.22,2.58l0 350.1 219.04 0c40.23,0 73.58,-4.32 100.02,-12.93 26.45,-8.63 47.42,-20.4 62.95,-35.35 15.53,-14.95 26.45,-32.5 32.77,-52.61 6.32,-20.12 9.48,-41.11 9.48,-62.95l0 -24.14zm6.9 546.7c0,-24.14 -3.44,-47.13 -10.34,-68.97 -6.9,-21.85 -18.69,-41.11 -35.35,-57.79 -16.68,-16.67 -38.52,-30.18 -65.54,-40.52 -27.03,-10.36 -60.66,-15.53 -100.89,-15.53l-219.04 0 0 379.43c20.7,0 44.84,0.56 72.44,1.72 27.6,1.15 50.59,1.72 68.99,1.72 55.18,0 101.17,-3.44 137.96,-10.34 36.79,-6.9 66.41,-17.83 88.82,-32.77 22.43,-14.95 38.52,-33.63 48.3,-56.05 9.77,-22.42 14.65,-48.58 14.65,-78.47l0 -22.43zm2258.35 -681.22c-2.3,-10.36 -5.17,-17.53 -8.63,-21.55 -3.44,-4.03 -9.76,-6.05 -18.97,-6.05 -9.2,0 -15.51,2.02 -18.97,6.05 -3.44,4.02 -6.32,11.19 -8.61,21.55l-250.08 1036.51c-2.3,8.04 -6.32,14.94 -12.07,20.68 -5.75,5.75 -12.65,8.63 -20.7,8.63l-182.81 0c-9.2,0 -16.68,-2.59 -22.41,-7.76 -5.76,-5.18 -8.63,-12.36 -8.63,-21.55 0,-1.17 0.29,-2.31 0.85,-3.46 0.59,-1.15 0.88,-2.88 0.88,-5.17l282.83 -1081.35c10.36,-40.23 25.3,-71.85 44.84,-94.84 19.55,-23.01 40.54,-40.55 62.95,-52.62 22.43,-12.07 45.42,-19.82 68.99,-23.28 23.56,-3.44 44.55,-5.17 62.94,-5.17 18.4,0 39.39,1.73 62.95,5.17 23.58,3.46 46.57,11.21 69,23.28 22.41,12.07 43.4,29.61 62.93,52.62 19.55,22.99 34.5,54.61 44.86,94.84l282.83 1081.35c0,2.29 0.29,4.02 0.85,5.17 0.58,1.15 0.88,2.29 0.88,3.46 0,9.19 -2.88,16.37 -8.63,21.55 -5.76,5.17 -13.22,7.76 -22.41,7.76l-182.82 0c-8.04,0 -14.94,-2.88 -20.69,-8.63 -5.76,-5.74 -9.78,-12.64 -12.07,-20.68l-250.08 -1036.51zm2251.44 255.25c24.16,-2.31 49.15,-3.46 75.31,-3.46 25.87,0 52.03,0 78.47,0 66.97,0 130.51,6.32 190.29,18.97 60.08,12.65 112.67,34.5 158.38,65.54 45.41,31.04 81.63,72.14 108.94,123.32 27.02,51.15 40.52,114.69 40.52,190.56l0 31.04c0,75.88 -13.5,139.42 -40.52,190.57 -27.02,51.18 -63.53,92.28 -108.94,123.32 -45.42,31.04 -98.3,52.89 -158.09,65.54 -60.07,12.65 -123.32,18.97 -190,18.97 -63.52,0 -124.47,-2.02 -183.38,-6.05 -58.64,-4.02 -110.37,-9.48 -155.5,-16.38 -17.26,-2.29 -30.77,-7.17 -40.54,-14.66 -9.76,-7.46 -14.66,-19.82 -14.66,-37.08l0 -1186.53c0,-9.21 3.46,-17.26 10.36,-24.16 6.88,-6.9 14.94,-10.34 24.14,-10.34l172.45 0c9.21,0 16.97,3.44 23.29,10.34 6.33,6.9 9.48,14.95 9.48,24.16l0 436.33zm0 619.13c8.05,1.16 18.7,2.02 31.91,2.6 13.22,0.56 27.31,1.15 42.26,1.71 14.94,0.58 29.6,1.15 43.98,1.73 14.36,0.58 26.14,0.86 35.35,0.86 86.22,0 150.9,-15.22 194.01,-45.7 43.13,-30.47 64.68,-81.92 64.68,-154.36l0 -31.04c0,-72.43 -21.55,-123.88 -64.68,-154.35 -43.11,-30.48 -107.79,-45.7 -194.01,-45.7 -9.21,0 -20.99,0.28 -35.35,0.86 -14.38,0.58 -29.04,1.15 -43.98,1.73 -14.95,0.56 -29.04,1.14 -42.26,1.71 -13.21,0.58 -23.86,1.44 -31.91,2.6l0 417.35z"/>
        </g>
    </g>
</svg>
